<svg width="40" height="40" viewBox="0 0 40 40" fill="none" xmlns="http://www.w3.org/2000/svg">
<g filter="url(#filter0_d_255_36186)">
<rect x="4" y="4" width="32" height="32" rx="12" fill="white"/>
<path fill-rule="evenodd" clip-rule="evenodd" d="M19.7655 25.3659C19.6155 25.5159 19.4121 25.6002 19.1999 25.6002C18.9878 25.6002 18.7843 25.5159 18.6343 25.3659L13.8343 20.5659C13.6843 20.4159 13.6001 20.2125 13.6001 20.0003C13.6001 19.7882 13.6843 19.5847 13.8343 19.4347L18.6343 14.6347C18.7852 14.489 18.9873 14.4084 19.197 14.4102C19.4068 14.412 19.6075 14.4961 19.7558 14.6445C19.9041 14.7928 19.9882 14.9934 19.9901 15.2032C19.9919 15.413 19.9113 15.615 19.7655 15.7659L16.3311 19.2003H25.5999C25.8121 19.2003 26.0156 19.2846 26.1656 19.4346C26.3156 19.5847 26.3999 19.7882 26.3999 20.0003C26.3999 20.2125 26.3156 20.416 26.1656 20.566C26.0156 20.716 25.8121 20.8003 25.5999 20.8003H16.3311L19.7655 24.2347C19.9155 24.3848 19.9998 24.5882 19.9998 24.8003C19.9998 25.0125 19.9155 25.2159 19.7655 25.3659Z" fill="#2A095E"/>
</g>
<defs>
<filter id="filter0_d_255_36186" x="0" y="0" width="40" height="40" filterUnits="userSpaceOnUse" color-interpolation-filters="sRGB">
<feFlood flood-opacity="0" result="BackgroundImageFix"/>
<feColorMatrix in="SourceAlpha" type="matrix" values="0 0 0 0 0 0 0 0 0 0 0 0 0 0 0 0 0 0 127 0" result="hardAlpha"/>
<feOffset/>
<feGaussianBlur stdDeviation="2"/>
<feComposite in2="hardAlpha" operator="out"/>
<feColorMatrix type="matrix" values="0 0 0 0 0 0 0 0 0 0 0 0 0 0 0 0 0 0 0.1 0"/>
<feBlend mode="normal" in2="BackgroundImageFix" result="effect1_dropShadow_255_36186"/>
<feBlend mode="normal" in="SourceGraphic" in2="effect1_dropShadow_255_36186" result="shape"/>
</filter>
</defs>
</svg>
