<svg width="21" height="21" viewBox="0 0 21 21" fill="none" xmlns="http://www.w3.org/2000/svg">
<path d="M9.66699 2.16699H8.00033C3.83366 2.16699 2.16699 3.83366 2.16699 8.00033V13.0003C2.16699 17.167 3.83366 18.8337 8.00033 18.8337H13.0003C17.167 18.8337 18.8337 17.167 18.8337 13.0003V11.3337" stroke="white" stroke-width="1.5" stroke-linecap="round" stroke-linejoin="round"/>
<path d="M13.8666 3.01639L7.2999 9.58305C7.0499 9.83305 6.7999 10.3247 6.7499 10.683L6.39157 13.1914C6.25823 14.0997 6.8999 14.733 7.80823 14.608L10.3166 14.2497C10.6666 14.1997 11.1582 13.9497 11.4166 13.6997L17.9832 7.13306C19.1166 5.99972 19.6499 4.68306 17.9832 3.01639C16.3166 1.34972 14.9999 1.88306 13.8666 3.01639Z" stroke="white" stroke-width="1.5" stroke-miterlimit="10" stroke-linecap="round" stroke-linejoin="round"/>
<path d="M12.9248 3.95801C13.4831 5.94967 15.0415 7.50801 17.0415 8.07467" stroke="white" stroke-width="1.5" stroke-miterlimit="10" stroke-linecap="round" stroke-linejoin="round"/>
</svg>
