<svg width="20" height="21" viewBox="0 0 20 21" fill="none" xmlns="http://www.w3.org/2000/svg">
<path fill-rule="evenodd" clip-rule="evenodd" d="M2 6.5C2 5.96957 2.21071 5.46086 2.58579 5.08579C2.96086 4.71071 3.46957 4.5 4 4.5H8L10 6.5H14C14.5304 6.5 15.0391 6.71071 15.4142 7.08579C15.7893 7.46086 16 7.96957 16 8.5V9.5H8C7.20435 9.5 6.44129 9.81607 5.87868 10.3787C5.31607 10.9413 5 11.7044 5 12.5V14C5 14.3978 4.84196 14.7794 4.56066 15.0607C4.27936 15.342 3.89782 15.5 3.5 15.5C3.10218 15.5 2.72064 15.342 2.43934 15.0607C2.15804 14.7794 2 14.3978 2 14V6.5Z" fill="#EDBF7A"/>
<path d="M6 12.5C6 11.9696 6.21071 11.4609 6.58579 11.0858C6.96086 10.7107 7.46957 10.5 8 10.5H16C16.5304 10.5 17.0391 10.7107 17.4142 11.0858C17.7893 11.4609 18 11.9696 18 12.5V14.5C18 15.0304 17.7893 15.5391 17.4142 15.9142C17.0391 16.2893 16.5304 16.5 16 16.5H2H4C4.53043 16.5 5.03914 16.2893 5.41421 15.9142C5.78929 15.5391 6 15.0304 6 14.5V12.5Z" fill="#EDBF7A"/>
</svg>
