<svg width="20" height="20" viewBox="0 0 20 20" fill="none" xmlns="http://www.w3.org/2000/svg">
<path d="M5.00033 10.833V14.1663M10.8337 18.333H4.16699C2.50033 18.333 1.66699 17.4997 1.66699 15.833V9.16634C1.66699 7.49967 2.50033 6.66634 4.16699 6.66634H8.33366V15.833C8.33366 17.4997 9.16699 18.333 10.8337 18.333ZM8.42533 3.33301C8.35866 3.58301 8.33366 3.85801 8.33366 4.16634V6.66634H4.16699V4.99967C4.16699 4.08301 4.91699 3.33301 5.83366 3.33301H8.42533ZM11.667 6.66634V10.833V6.66634ZM15.0003 6.66634V10.833V6.66634ZM14.167 14.1663H12.5003C12.042 14.1663 11.667 14.5413 11.667 14.9997V18.333H15.0003V14.9997C15.0003 14.5413 14.6253 14.1663 14.167 14.1663Z" stroke="white" stroke-width="1.5" stroke-miterlimit="10" stroke-linecap="round" stroke-linejoin="round"/>
<path d="M8.33301 15.8337V4.16699C8.33301 2.50033 9.16634 1.66699 10.833 1.66699H15.833C17.4997 1.66699 18.333 2.50033 18.333 4.16699V15.8337C18.333 17.5003 17.4997 18.3337 15.833 18.3337H10.833C9.16634 18.3337 8.33301 17.5003 8.33301 15.8337Z" stroke="white" stroke-width="1.5" stroke-miterlimit="10" stroke-linecap="round" stroke-linejoin="round"/>
</svg>
