<svg width="24" height="24" viewBox="0 0 24 24" fill="none" xmlns="http://www.w3.org/2000/svg">
<path d="M19.0002 6H11.0002L9.00024 4H4.00024C2.90024 4 2.00024 4.9 2.00024 6V18C2.00024 19.1 2.90024 20 4.00024 20H19.5002C20.3502 20 21.0002 19.35 21.0002 18.5V8C21.0002 6.9 20.1002 6 19.0002 6Z" fill="#4202AB"/>
<path d="M21.1002 9H7.65024C6.70024 9 5.85024 9.7 5.70024 10.65L4.00024 20H19.8502C20.8002 20 21.6502 19.3 21.8002 18.35L23.0502 11.35C23.3002 10.15 22.3502 9 21.1002 9Z" fill="#6115DE"/>
</svg>
